<svg width="30" height="31" viewBox="0 0 30 31" fill="none" xmlns="http://www.w3.org/2000/svg">
<path opacity="0.4" d="M7.11396 5.93927L21.2052 1.23699C27.5322 -0.872012 30.9691 2.5805 28.8757 8.90749L24.1734 22.9987C21.0177 32.4814 15.8312 32.4814 12.6755 22.9987L11.2851 18.812L7.09834 17.4216C-2.36872 14.2815 -2.36872 9.11058 7.11396 5.93927Z" fill="#20DC49"/>
<path d="M14.9407 14.7971L20.8927 8.82941L14.9407 14.7971Z" fill="#20DC49"/>
<path d="M14.9408 15.9688C14.6439 15.9688 14.3471 15.8594 14.1128 15.6251C13.6597 15.172 13.6597 14.4222 14.1128 13.9691L20.0492 8.00143C20.5023 7.54839 21.2521 7.54839 21.7052 8.00143C22.1582 8.45448 22.1582 9.20434 21.7052 9.65739L15.7687 15.6251C15.5344 15.8438 15.2376 15.9688 14.9408 15.9688Z" fill="#20DC49"/>
</svg>
